<?xml version="1.0" standalone="no"?><!DOCTYPE svg PUBLIC "-//W3C//DTD SVG 1.1//EN" "http://www.w3.org/Graphics/SVG/1.1/DTD/svg11.dtd"><svg t="1618393005660" class="icon" viewBox="0 0 1024 1024" version="1.1" xmlns="http://www.w3.org/2000/svg" p-id="3480" width="18px" height="18px" xmlns:xlink="http://www.w3.org/1999/xlink"><defs><style type="text/css"></style></defs><path d="M775.64 516.49a280.16 280.16 0 0 1 2.49 37.26h27.13a307.57 307.57 0 0 0-2.74-40.88c-10.75-79.73-54-153.29-118.79-201.82l-16.25 21.69c58.96 44.26 98.39 111.17 108.16 183.75zM228.28 520.27a276.87 276.87 0 0 1 109.15-187.86l-16.22-21.76c-66.29 49.44-110 124.63-119.84 206.35a303.1 303.1 0 0 0-2.21 36.75h27.13a279.64 279.64 0 0 1 1.99-33.48zM310.84 597H193.77a48.24 48.24 0 0 0-48.17 48.17v117.1a48.21 48.21 0 0 0 48.17 48.14h117.07A48.2 48.2 0 0 0 359 762.27V645.19A48.22 48.22 0 0 0 310.84 597z m21 165.25a21 21 0 0 1-21 21H193.77a21 21 0 0 1-21-21V645.19a21.05 21.05 0 0 1 21-21h117.07a21 21 0 0 1 21 21zM880 749.14l-88.18-140.33c-10.86-17.31-39-17.27-49.82 0l-88.14 140.33a29.4 29.4 0 0 0 24.9 45.05h176.3A29.4 29.4 0 0 0 880 749.14z m-24.9 17.92H678.76l-1.94-3.48L765 623.24 753.48 616l15.38 7.22L857 763.58zM508.28 396.47a120.66 120.66 0 1 0-120.64-120.68c0 66.53 54.12 120.68 120.64 120.68z m0-214.18a93.53 93.53 0 1 1-93.51 93.5 93.61 93.61 0 0 1 93.51-93.5zM425.44 823.83a275.33 275.33 0 0 1-34.31-14.73l-12.34 24.16a305.68 305.68 0 0 0 37.65 16.17 304.72 304.72 0 0 0 233.74-14l-11.93-24.38c-66.13 32.44-143.71 37.08-212.81 12.78zM354.24 436.3c-24.43 18.53-39.65 49.36-41.75 84.51l14.83 0.87c1.85-30.83 14.93-57.63 35.91-73.56a84.17 84.17 0 0 1 11.19-7.12l-7-13.13a92.74 92.74 0 0 0-13.18 8.43zM693.71 530.5l14.83-0.88c-2.1-35.14-17.32-66-41.75-84.51a91.26 91.26 0 0 0-13.24-8.41l-6.93 13.13a80.62 80.62 0 0 1 11.18 7.11c20.98 15.92 34.06 42.72 35.91 73.56zM467.68 754.33l-6.86 13.2c18.54 9.61 38.11 14.51 56.91 14.51a98.52 98.52 0 0 0 37-7 97.23 97.23 0 0 0 14-7l-7.73-12.7a79.24 79.24 0 0 1-11.84 5.91c-24.37 9.87-54.06 7.33-81.48-6.92z" p-id="3481"></path></svg>