<?xml version="1.0" standalone="no"?><!DOCTYPE svg PUBLIC "-//W3C//DTD SVG 1.1//EN" "http://www.w3.org/Graphics/SVG/1.1/DTD/svg11.dtd"><svg t="1615277597858" class="icon" viewBox="0 0 1079 1024" version="1.1" xmlns="http://www.w3.org/2000/svg" p-id="4835" xmlns:xlink="http://www.w3.org/1999/xlink" width="134.875" height="128"><defs><style type="text/css"></style></defs><path d="M0 910.032291m48.62893 0l973.069792 0q48.62893 0 48.628929 48.62893l0 8.186688q0 48.62893-48.628929 48.62893l-973.069792 0q-48.62893 0-48.62893-48.62893l0-8.186688q0-48.62893 48.62893-48.62893Z" fill="#F47A27" p-id="4836"></path><path d="M171.101789 176.177536h155.383347a65.493508 65.493508 0 0 1 65.493508 65.493508v668.361247H105.608281V241.671044a65.493508 65.493508 0 0 1 65.493508-65.493508z" fill="#13B761" p-id="4837"></path><path d="M326.485136 176.177536h-55.014546a65.493508 65.493508 0 0 1 65.493508 65.493508v668.361247h55.014546V241.671044a65.493508 65.493508 0 0 0-65.493508-65.493508z" fill="#09AA51" p-id="4838"></path><path d="M457.472152 0h155.383347a65.493508 65.493508 0 0 1 65.493508 65.493508v844.538783H391.978644V65.493508a65.493508 65.493508 0 0 1 65.493508-65.493508z" fill="#E04141" p-id="4839"></path><path d="M612.855499 0h-60.254027a65.493508 65.493508 0 0 1 65.493508 65.493508v844.538783h60.254027V65.493508a65.493508 65.493508 0 0 0-65.493508-65.493508z" fill="#D32A2A" p-id="4840"></path><path d="M743.842515 176.177536h155.383347a65.493508 65.493508 0 0 1 65.493508 65.493508v668.361247H678.349007V241.671044a65.493508 65.493508 0 0 1 65.493508-65.493508z" fill="#2A8FDB" p-id="4841"></path><path d="M899.389596 176.177536h-62.873767a65.493508 65.493508 0 0 1 65.493507 65.493508v668.361247h62.873768V241.671044a65.493508 65.493508 0 0 0-65.493508-65.493508z" fill="#1586CC" p-id="4842"></path><path d="M391.978644 232.010751h286.370363v83.504223H391.978644zM391.978644 433.730755h286.370363v83.504223H391.978644z" fill="#F4904D" p-id="4843"></path><path d="M678.349007 332.870753h286.370363v83.504223H678.349007zM678.349007 534.754491h286.370363v83.504223H678.349007z" fill="#8FEAF7" p-id="4844"></path><path d="M105.608281 333.853156h286.370363v83.504223H105.608281zM105.608281 535.736894h286.370363v83.504222H105.608281z" fill="#BEE27F" opacity=".7" p-id="4845"></path></svg>